<svg width="20" height="12" viewBox="0 0 20 12" fill="none" xmlns="http://www.w3.org/2000/svg">
<path fill-rule="evenodd" clip-rule="evenodd" d="M19.494 12H16.9286C16.091 12 15.9858 11.3743 14.4501 9.87209C13.155 8.56252 12.6006 8.45894 12.2867 8.45894C12.0071 8.45894 11.815 8.67397 11.815 9.1743V11.1774C11.815 11.768 11.4834 12 10.1227 12C7.88828 12 5.41037 10.5875 3.52534 7.97617C0.715827 4.0953 0 1.19812 0 0.572409C0 0.232598 0.244717 0 0.576326 0H2.86212C3.45559 0 3.68258 0.179294 3.89183 0.822573C4.93867 3.97052 6.80656 6.74232 7.59155 6.74232C7.88828 6.74232 7.92316 6.49215 7.92316 5.84827V2.64701C7.92316 1.09575 7.06842 0.96613 7.06842 0.393721C7.06842 0.166574 7.2428 0 7.5218 0H11.1866C11.6755 0 11.7452 0.179294 11.7452 0.786836V5.13291C11.7452 5.62839 11.8445 5.81253 12.0591 5.81253C12.3263 5.81253 12.5716 5.64717 13.0539 5.09717C14.5583 3.3963 15.7943 0.697794 15.7943 0.697794C15.9509 0.357983 16.1436 0.125385 16.6668 0.125385H18.9526C19.4071 0.125385 19.5986 0.376155 19.5117 0.822573C19.2493 2.0746 16.6142 5.884 16.6142 5.884C16.37 6.27712 16.2654 6.49215 16.6142 6.8677C16.8589 7.18934 17.6267 7.88653 18.0978 8.53041C19.2493 9.78244 20 10.8376 20 11.4282C20 11.8746 19.7559 12 19.494 12Z" fill="white"/>
</svg>
