<svg width="24" height="24" viewBox="0 0 24 24" fill="none" xmlns="http://www.w3.org/2000/svg">
<path fill-rule="evenodd" clip-rule="evenodd" d="M14.7946 19.302C15.1971 19.6862 15.8359 19.668 16.2159 19.2614L22.3622 12.6827C22.7212 12.2984 22.7212 11.7016 22.3622 11.3173L16.2159 4.73865C15.8359 4.332 15.1971 4.31375 14.7946 4.69805L14.7058 4.7828C14.3133 5.15761 14.2913 5.77715 14.6564 6.17877L19.337 11.3273C19.6837 11.7087 19.6837 12.2913 19.337 12.6727L14.6564 17.8212C14.2913 18.2229 14.3133 18.8424 14.7058 19.2172L14.7946 19.302Z" fill="#505050"/>
<path fill-rule="evenodd" clip-rule="evenodd" d="M1 12.1111C1 12.6633 1.44772 13.1111 2 13.1111L20 13.1111C20.5523 13.1111 21 12.6633 21 12.1111L21 11.8888C21 11.3366 20.5523 10.8888 20 10.8888L2 10.8888C1.44772 10.8888 1 11.3366 1 11.8888L1 12.1111Z" fill="#505050"/>
</svg>
