<svg width="44" height="44" viewBox="0 0 44 44" fill="none" xmlns="http://www.w3.org/2000/svg">
<path fill-rule="evenodd" clip-rule="evenodd" d="M39.6 29.8001C39.6 30.3523 39.1523 30.8001 38.6 30.8001H29.925C29.6598 30.8001 29.4054 30.6947 29.2179 30.5072L25.8179 27.1072C25.4274 26.7167 25.4274 26.0835 25.8179 25.693L29.2179 22.293C29.4054 22.1054 29.6598 22.0001 29.925 22.0001H38.6C39.1523 22.0001 39.6 22.4478 39.6 23.0001V29.8001ZM35.1939 38.6005C35.1936 39.1526 34.746 39.6 34.1939 39.6H5.4C4.84772 39.6 4.4 39.1523 4.4 38.6V14.2001C4.4 13.6478 4.84772 13.2001 5.4 13.2001H34.2C34.7523 13.2001 35.2 13.6478 35.2 14.2001V16.6001C35.2 17.1524 34.7523 17.6001 34.2 17.6001H28.6C28.017 17.6001 27.4582 17.8311 27.0446 18.2447L20.4446 24.8447C19.5844 25.7049 19.5844 27.0953 20.4446 27.9577L27.0446 34.5576C27.4582 34.9668 28.017 35.2 28.6 35.2H34.1951C34.7476 35.2 35.1954 35.6481 35.1951 36.2005L35.1939 38.6005ZM26.683 5.33598C27.1659 5.14277 27.7163 5.352 27.9489 5.81721L28.7168 7.35292C29.0492 8.01783 28.5657 8.80014 27.8224 8.80014H23.2161C22.1151 8.80014 21.8224 7.28068 22.8446 6.87169L26.683 5.33598ZM41.8 17.6001H40.6C40.0477 17.6001 39.6 17.1524 39.6 16.6001V13.2001C39.6 10.7735 37.6266 8.80014 35.2 8.80014H34.9776C34.5988 8.80014 34.2526 8.58618 34.0832 8.24746L30.5668 1.21677C30.0564 0.193773 28.8464 -0.266026 27.7816 0.156373L6.35423 8.7286C6.2361 8.77586 6.11003 8.80014 5.98279 8.80014H4.4C1.9734 8.80014 0 10.7735 0 13.2001V39.6C0 42.0266 1.9734 44 4.4 44H35.2C37.6266 44 39.6 42.0266 39.6 39.6V36.2C39.6 35.6478 40.0477 35.2 40.6 35.2H41.8C43.0144 35.2 44 34.2144 44 33V19.8001C44 18.5857 43.0144 17.6001 41.8 17.6001Z" fill="#541E66"/>
<path fill-rule="evenodd" clip-rule="evenodd" d="M28.6 26.4001C28.6 27.6167 29.5856 28.6001 30.8 28.6001C32.0144 28.6001 33 27.6167 33 26.4001C33 25.1879 32.0144 24.2001 30.8 24.2001C29.5856 24.2001 28.6 25.1879 28.6 26.4001Z" fill="#541E66"/>
</svg>
