<svg width="44" height="36" viewBox="0 0 44 36" fill="none" xmlns="http://www.w3.org/2000/svg">
<path fill-rule="evenodd" clip-rule="evenodd" d="M11 20.25C9.7856 20.25 8.8 21.258 8.8 22.5C8.8 23.742 9.7856 24.75 11 24.75C12.2144 24.75 13.2 23.742 13.2 22.5C13.2 21.258 12.2144 20.25 11 20.25Z" fill="#800D63"/>
<path fill-rule="evenodd" clip-rule="evenodd" d="M33 20.25C31.7856 20.25 30.8 21.258 30.8 22.5C30.8 23.742 31.7856 24.75 33 24.75C34.2144 24.75 35.2 23.742 35.2 22.5C35.2 21.258 34.2144 20.25 33 20.25Z" fill="#800D63"/>
<path fill-rule="evenodd" clip-rule="evenodd" d="M35.2 27H8.8C6.3734 27 4.4 24.9818 4.4 22.5C4.4 20.0182 6.3734 18 8.8 18H35.2C37.6266 18 39.6 20.0182 39.6 22.5C39.6 24.9818 37.6266 27 35.2 27ZM14.6087 4.5H29.3927C30.4377 4.5 31.3463 5.2605 31.5509 6.309L33.3967 13.5H10.6047L12.4505 6.30675C12.6551 5.2605 13.5637 4.5 14.6087 4.5ZM44 22.5C44 18.5377 41.4656 15.2032 37.9808 14.004L35.8644 5.427C35.2506 2.2815 32.5292 0 29.392 0H14.608C11.4708 0 8.7494 2.2815 8.1356 5.42475L6.0192 14.004C2.5344 15.2032 0 18.5377 0 22.5C0 25.8165 1.782 28.6875 4.4 30.2467V31.5C4.4 33.75 4.4 36 7.7 36C11 36 11 33.75 11 31.5H33C33 33.75 33 36 36.3 36C39.6 36 39.6 33.75 39.6 31.5C39.6 29.25 39.6 30.2467 39.6 30.2467C42.218 28.6875 44 25.8165 44 22.5Z" fill="#800D63"/>
<path fill-rule="evenodd" clip-rule="evenodd" d="M17.6 22.5C17.6 23.7426 18.585 24.75 19.8 24.75H24.2C25.415 24.75 26.4 23.7426 26.4 22.5C26.4 21.2574 25.415 20.25 24.2 20.25H19.8C18.585 20.25 17.6 21.2574 17.6 22.5Z" fill="#800D63"/>
</svg>
