<svg width="32" height="44" viewBox="0 0 32 44" fill="none" xmlns="http://www.w3.org/2000/svg">
<path fill-rule="evenodd" clip-rule="evenodd" d="M16 26.457C9.69829 26.457 4.57143 21.5384 4.57143 15.4926C4.57143 12.6556 5.72336 9.99896 7.66372 8.01062C8.23331 7.42694 9.14286 7.87554 9.14286 8.69108V13.2998C9.14286 16.9268 12.2194 19.8784 16 19.8784C19.7806 19.8784 22.8571 16.9268 22.8571 13.2998V8.69109C22.8571 7.87554 23.7667 7.42694 24.3363 8.01062C26.2766 9.99896 27.4286 12.6556 27.4286 15.4926C27.4286 21.5384 22.3017 26.457 16 26.457ZM32 15.4926C32 9.01052 27.7143 3.1994 21.3326 1.03504L19.6074 0.448973C18.9588 0.228651 18.2857 0.710863 18.2857 1.39583V13.2998C18.2857 14.5102 17.2594 15.4926 16 15.4926C14.7406 15.4926 13.7143 14.5102 13.7143 13.2998V1.39583C13.7143 0.710864 13.0412 0.228652 12.3926 0.448974L10.6674 1.03504C4.28571 3.1994 0 9.01052 0 15.4926C0 21.3792 3.48047 26.4874 8.56449 29.0619C8.91343 29.2386 9.14286 29.5914 9.14286 29.9826V43C9.14286 43.5523 9.59057 44 10.1429 44H12.7143C13.2666 44 13.7143 43.5523 13.7143 43V31.8428C13.7143 31.2905 14.162 30.8428 14.7143 30.8428H17.2857C17.838 30.8428 18.2857 31.2905 18.2857 31.8428V43C18.2857 43.5523 18.7334 44 19.2857 44H21.8571C22.4094 44 22.8571 43.5523 22.8571 43V29.9826C22.8571 29.5914 23.0866 29.2386 23.4355 29.0619C28.5195 26.4874 32 21.3792 32 15.4926Z" fill="#DE0C74"/>
</svg>
