<svg width="20" height="20" viewBox="0 0 20 20" fill="none" xmlns="http://www.w3.org/2000/svg">
<path fill-rule="evenodd" clip-rule="evenodd" d="M19.2929 2.16869C19.6834 1.77817 19.6834 1.145 19.2929 0.754476L19.2455 0.707107C18.855 0.316583 18.2218 0.316583 17.8313 0.707107L10.7071 7.83131C10.3166 8.22183 9.68342 8.22184 9.29289 7.83131L2.16869 0.707107C1.77817 0.316583 1.145 0.316582 0.754476 0.707107L0.707107 0.754476C0.316582 1.145 0.316583 1.77817 0.707107 2.16869L7.83131 9.29289C8.22184 9.68342 8.22184 10.3166 7.83131 10.7071L0.707107 17.8313C0.316583 18.2218 0.316583 18.855 0.707107 19.2455L0.754519 19.2929C1.14503 19.6834 1.77816 19.6835 2.16869 19.293L9.29294 12.1696C9.68345 11.7791 10.3165 11.7791 10.7071 12.1696L17.8313 19.293C18.2218 19.6835 18.855 19.6834 19.2455 19.2929L19.2929 19.2455C19.6834 18.855 19.6834 18.2218 19.2929 17.8313L12.1687 10.7071C11.7782 10.3166 11.7782 9.68342 12.1687 9.29289L19.2929 2.16869Z" fill="#505050"/>
</svg>
