<svg width="20" height="14" viewBox="0 0 20 14" fill="none" xmlns="http://www.w3.org/2000/svg">
<path fill-rule="evenodd" clip-rule="evenodd" d="M8.18186 9.74125V4.25891C9.96465 5.17839 11.6938 6.06954 13.4973 6.9987C11.7048 7.92371 9.98017 8.81348 8.18186 9.74125ZM19.8964 3.41956C19.8634 2.59334 19.6481 1.78232 19.0771 1.11637C18.3749 0.297743 17.3959 0.225207 16.4311 0.187903C14.2862 0.105695 12.1393 0.069082 9.49713 0C7.57272 0.0759902 5.15299 0.15198 2.73714 0.273565C1.64755 0.32883 0.828251 0.871815 0.464192 1.91495C0.273433 2.46416 0.139578 3.05619 0.115005 3.6344C0.038055 5.44988 -0.0162629 7.26812 0.00442967 9.08428C0.0141293 9.96784 0.154451 10.8611 0.334864 11.7294C0.565068 12.8361 1.30289 13.5152 2.4358 13.6962C3.14905 13.8102 3.87587 13.8696 4.59817 13.8952C8.72892 14.0416 12.859 14.052 16.9885 13.8143C18.3969 13.7335 19.3778 13.0254 19.6998 11.67C19.8712 10.946 19.9941 10.191 19.9979 9.44973C20.0089 7.43944 19.976 5.42777 19.8964 3.41956Z" fill="#262626"/>
</svg>
