<svg width="16" height="16" viewBox="0 0 16 16" fill="none" xmlns="http://www.w3.org/2000/svg">
<path fill-rule="evenodd" clip-rule="evenodd" d="M12.707 7.20791C12.7797 7.64118 12.4166 8 11.9773 8V8C11.538 8 11.192 7.63831 11.0833 7.21265C10.7964 6.08945 9.91055 5.20356 8.78734 4.91671C8.36169 4.808 8 4.46204 8 4.02273V4.02273C8 3.58341 8.35882 3.22032 8.79209 3.29296C10.7908 3.62804 12.372 5.20921 12.707 7.20791Z" fill="#505050"/>
<path fill-rule="evenodd" clip-rule="evenodd" d="M15.4629 7.25107C15.5039 7.66324 15.1642 8 14.75 8V8C14.3358 8 14.0049 7.66253 13.9535 7.25151C13.6146 4.54041 11.4596 2.38536 8.74848 2.04645C8.33747 1.99507 8 1.66421 8 1.25V1.25C8 0.835786 8.33676 0.496051 8.74893 0.537102C12.2878 0.889552 15.1104 3.71223 15.4629 7.25107Z" fill="#505050"/>
<path fill-rule="evenodd" clip-rule="evenodd" d="M8.6538 6.8032C8.32354 6.62229 8 6.94162 8 7.31818V7.31818C8 7.69474 8.30526 8 8.68182 8V8C9.05837 8 9.37771 7.67646 9.1968 7.3462C9.0715 7.11746 8.88254 6.9285 8.6538 6.8032Z" fill="#505050"/>
<path fill-rule="evenodd" clip-rule="evenodd" d="M3 2.75C2.44771 2.75 2 3.19772 2 3.75L2 6.5C2 10.6355 5.3645 14 9.5 14H12.2505C12.8029 14 13.2506 13.5521 13.2505 12.9998L13.2502 11.9998C13.2501 11.4476 12.8024 11 12.2502 11H11C10.5858 11 10.25 11.3358 10.25 11.75V11.75C10.25 12.164 9.914 12.5 9.5 12.5C6.134 12.5 3.554 9.92525 3.5 6.512C3.497 6.311 3.57425 6.1175 3.71525 5.9735C3.85625 5.83025 4.049 5.75 4.25 5.75V5.75C4.66421 5.75 5 5.41422 5 5V3.75C5 3.19772 4.55228 2.75 4 2.75H3ZM13.25 15.5H9.5C4.53725 15.5 0.5 11.4628 0.5 6.5L0.5 2.75C0.5 1.92275 1.17275 1.25 2 1.25L5 1.25C5.82725 1.25 6.5 1.92275 6.5 2.75L6.5 5.75C6.5 6.1558 6.33798 6.52453 6.07528 6.79486C5.65667 7.22564 5.14933 7.77902 5.3873 8.33054C5.83605 9.37058 6.6462 10.1856 7.67197 10.6292C8.22181 10.867 8.76894 10.3571 9.19432 9.93529C9.46555 9.66634 9.83861 9.5 10.25 9.5H13.25C14.0772 9.5 14.75 10.1728 14.75 11V14C14.75 14.8273 14.0772 15.5 13.25 15.5Z" fill="#505050"/>
</svg>
