<svg width="12" height="11" viewBox="0 0 12 11" fill="none" xmlns="http://www.w3.org/2000/svg">
<path fill-rule="evenodd" clip-rule="evenodd" d="M10.725 0.25H8.625C8.48576 0.25 8.35223 0.307068 8.25377 0.40865C8.15531 0.510233 8.1 0.648008 8.1 0.791667V4.04167C8.1 4.18533 8.15531 4.3231 8.25377 4.42468C8.35223 4.52626 8.48576 4.58333 8.625 4.58333H10.725C10.8642 4.58333 10.9978 4.52626 11.0962 4.42468C11.1947 4.3231 11.25 4.18533 11.25 4.04167V0.791667C11.25 0.648008 11.1947 0.510233 11.0962 0.40865C10.9978 0.307068 10.8642 0.25 10.725 0.25ZM10.2 2.975C10.2 3.26495 9.96495 3.5 9.675 3.5V3.5C9.38505 3.5 9.15 3.26495 9.15 2.975V1.85833C9.15 1.56838 9.38505 1.33333 9.675 1.33333V1.33333C9.96495 1.33333 10.2 1.56838 10.2 1.85833V2.975Z" fill="#505050"/>
<path fill-rule="evenodd" clip-rule="evenodd" d="M3.375 0.25H1.275C1.13576 0.25 1.00223 0.307068 0.903769 0.40865C0.805312 0.510233 0.75 0.648008 0.75 0.791667V4.04167C0.75 4.18533 0.805312 4.3231 0.903769 4.42468C1.00223 4.52626 1.13576 4.58333 1.275 4.58333H3.375C3.51424 4.58333 3.64777 4.52626 3.74623 4.42468C3.84469 4.3231 3.9 4.18533 3.9 4.04167V0.791667C3.9 0.648008 3.84469 0.510233 3.74623 0.40865C3.64777 0.307068 3.51424 0.25 3.375 0.25ZM2.85 2.975C2.85 3.26495 2.61495 3.5 2.325 3.5V3.5C2.03505 3.5 1.8 3.26495 1.8 2.975V1.85833C1.8 1.56838 2.03505 1.33333 2.325 1.33333V1.33333C2.61495 1.33333 2.85 1.56838 2.85 1.85833V2.975Z" fill="#505050"/>
<path d="M7.42123 2.79968C7.32277 2.90126 7.18924 2.95833 7.05 2.95833V2.95833C6.76005 2.95833 6.52499 3.19339 6.525 3.48334L6.525 7.51667C6.525 7.80662 6.76005 8.04167 7.05 8.04167V8.04167C7.18924 8.04167 7.32277 8.09873 7.42123 8.20032C7.51969 8.3019 7.575 8.43967 7.575 8.58333C7.575 8.72699 7.51969 8.86477 7.42123 8.96635C7.32277 9.06793 7.18924 9.125 7.05 9.125L6.0017 9.125L6 9.125L5.9983 9.125L4.95 9.125C4.81076 9.125 4.67723 9.06794 4.57877 8.96635C4.48031 8.86477 4.425 8.727 4.425 8.58334C4.425 8.43968 4.48031 8.3019 4.57877 8.20032C4.67723 8.09874 4.81076 8.04167 4.95 8.04167V8.04167C5.23995 8.04167 5.475 7.80662 5.475 7.51667L5.475 3.48333C5.475 3.19339 5.23995 2.95834 4.95 2.95834V2.95834C4.81076 2.95834 4.67723 2.90127 4.57877 2.79969C4.48031 2.69811 4.425 2.56033 4.425 2.41667C4.425 2.27301 4.48031 2.13524 4.57877 2.03366C4.67723 1.93207 4.81076 1.87501 4.95 1.87501L7.05 1.875C7.18924 1.875 7.32277 1.93207 7.42123 2.03365C7.51969 2.13523 7.575 2.27301 7.575 2.41667C7.575 2.56033 7.51969 2.6981 7.42123 2.79968Z" fill="#505050"/>
<path fill-rule="evenodd" clip-rule="evenodd" d="M1.275 6.41667H3.375C3.51424 6.41667 3.64777 6.47373 3.74623 6.57532C3.84469 6.6769 3.9 6.81467 3.9 6.95833V10.2083C3.9 10.352 3.84469 10.4898 3.74623 10.5913C3.64777 10.6929 3.51424 10.75 3.375 10.75H1.275C1.13576 10.75 1.00223 10.6929 0.903769 10.5913C0.805312 10.4898 0.75 10.352 0.75 10.2083V6.95833C0.75 6.81467 0.805312 6.6769 0.903769 6.57532C1.00223 6.47373 1.13576 6.41667 1.275 6.41667ZM1.8 9.14167C1.8 9.43162 2.03505 9.66667 2.325 9.66667V9.66667C2.61495 9.66667 2.85 9.43162 2.85 9.14167V8.025C2.85 7.73505 2.61495 7.5 2.325 7.5V7.5C2.03505 7.5 1.8 7.73505 1.8 8.025V9.14167Z" fill="#505050"/>
<path fill-rule="evenodd" clip-rule="evenodd" d="M8.625 6.41667H10.725C10.8642 6.41667 10.9978 6.47373 11.0962 6.57532C11.1947 6.6769 11.25 6.81467 11.25 6.95833V10.2083C11.25 10.352 11.1947 10.4898 11.0962 10.5913C10.9978 10.6929 10.8642 10.75 10.725 10.75H8.625C8.48576 10.75 8.35223 10.6929 8.25377 10.5913C8.15531 10.4898 8.1 10.352 8.1 10.2083V6.95833C8.1 6.81467 8.15531 6.6769 8.25377 6.57532C8.35223 6.47373 8.48576 6.41667 8.625 6.41667ZM9.15 9.14167C9.15 9.43162 9.38505 9.66667 9.675 9.66667V9.66667C9.96495 9.66667 10.2 9.43162 10.2 9.14167V8.025C10.2 7.73505 9.96495 7.5 9.675 7.5V7.5C9.38505 7.5 9.15 7.73505 9.15 8.025V9.14167Z" fill="#505050"/>
</svg>
