<svg width="12" height="13" viewBox="0 0 12 13" fill="none" xmlns="http://www.w3.org/2000/svg">
<path fill-rule="evenodd" clip-rule="evenodd" d="M4.36716 10.8705C3.67225 10.609 3.79554 9.72392 4.52465 9.58357C5.49638 9.39653 6.50366 9.39664 7.47515 9.58378C8.20432 9.72425 8.3274 10.6095 7.63234 10.8709C7.12434 11.0619 6.57447 11.1667 6.00002 11.1667C5.42557 11.1667 4.87544 11.0618 4.36716 10.8705ZM6.00002 1.83334C8.57369 1.83334 10.6667 3.92692 10.6667 6.5C10.6667 7.17463 10.5223 7.81557 10.2633 8.39471C10.0617 8.84551 9.51672 8.97655 9.05269 8.80764C8.64397 8.65887 8.22421 8.54158 7.79797 8.45539C7.23378 8.34129 6.81654 7.82588 6.89796 7.25605L7.07838 5.99336C7.12393 5.67458 6.90245 5.37922 6.58367 5.33363V5.33363C6.26487 5.28804 5.96947 5.50952 5.92388 5.82832L5.6895 7.46706C5.62157 7.94207 5.22466 8.29582 4.74938 8.36186C4.13551 8.44715 3.53061 8.59576 2.948 8.80809C2.48399 8.9772 1.939 8.84598 1.73731 8.39517C1.47808 7.81577 1.33335 7.17473 1.33335 6.5C1.33335 3.92692 3.42694 1.83334 6.00002 1.83334ZM6.00002 0.666672C2.78352 0.666672 0.166687 3.28351 0.166687 6.5C0.166687 9.7165 2.78352 12.3333 6.00002 12.3333C9.2171 12.3333 11.8334 9.7165 11.8334 6.5C11.8334 3.28351 9.2171 0.666672 6.00002 0.666672Z" fill="#505050"/>
<path fill-rule="evenodd" clip-rule="evenodd" d="M6.00059 3.58348C6.32259 3.58348 6.58392 3.32273 6.58392 3.00015C6.58392 2.67815 6.32259 2.41681 6.00059 2.41681C5.67859 2.41681 5.41726 2.67815 5.41726 3.00015C5.41726 3.32273 5.67859 3.58348 6.00059 3.58348Z" fill="#505050"/>
<path fill-rule="evenodd" clip-rule="evenodd" d="M8.88776 4.43796C9.11584 4.20987 9.11584 3.84121 8.88776 3.61312C8.65968 3.38504 8.29101 3.38504 8.06293 3.61312C7.83485 3.84121 7.83485 4.20987 8.06293 4.43796C8.29101 4.66604 8.65968 4.66604 8.88776 4.43796Z" fill="#505050"/>
<path fill-rule="evenodd" clip-rule="evenodd" d="M9.50059 7.08348C9.82259 7.08348 10.0839 6.82273 10.0839 6.50015C10.0839 6.17815 9.82259 5.91681 9.50059 5.91681C9.17859 5.91681 8.91726 6.17815 8.91726 6.50015C8.91726 6.82273 9.17859 7.08348 9.50059 7.08348Z" fill="#505050"/>
<path fill-rule="evenodd" clip-rule="evenodd" d="M3.93797 4.43796C4.16606 4.20987 4.16606 3.84121 3.93797 3.61312C3.70989 3.38504 3.34122 3.38504 3.11314 3.61312C2.88506 3.84121 2.88506 4.20987 3.11314 4.43796C3.34122 4.66604 3.70989 4.66604 3.93797 4.43796Z" fill="#505050"/>
<path fill-rule="evenodd" clip-rule="evenodd" d="M2.50059 7.08348C2.82259 7.08348 3.08392 6.82273 3.08392 6.50015C3.08392 6.17815 2.82259 5.91681 2.50059 5.91681C2.17859 5.91681 1.91726 6.17815 1.91726 6.50015C1.91726 6.82273 2.17859 7.08348 2.50059 7.08348Z" fill="#505050"/>
</svg>
