<svg width="12" height="13" viewBox="0 0 12 13" fill="none" xmlns="http://www.w3.org/2000/svg">
<path fill-rule="evenodd" clip-rule="evenodd" d="M11.8056 11.0541L10.8741 6.94381C10.7438 6.36805 10.1703 5.91654 9.56951 5.91654H8.96312C8.64095 5.91654 8.37978 6.17772 8.37978 6.49989V6.49989C8.37978 6.82206 8.64095 7.08323 8.96312 7.08323H9.56951C9.61769 7.08323 9.70157 7.15032 9.71228 7.19699L10.3354 9.94553C10.4773 10.5712 10.0017 11.1666 9.3602 11.1666H2.6398C1.9983 11.1666 1.52272 10.5712 1.66454 9.94556L2.28776 7.1964C2.29847 7.15032 2.38294 7.08323 2.43112 7.08323H3.03751C3.35968 7.08323 3.62086 6.82206 3.62086 6.49989V6.49989C3.62086 6.17772 3.35968 5.91654 3.03751 5.91654H2.43112C1.82972 5.91654 1.25686 6.36805 1.12658 6.94381L0.19443 11.0541C0.121262 11.3772 0.19443 11.7027 0.3949 11.9477C0.595369 12.1928 0.904105 12.3333 1.24139 12.3333H10.7592C11.0965 12.3333 11.4047 12.1928 11.6051 11.9477C11.8056 11.7027 11.8788 11.3772 11.8056 11.0541Z" fill="#505050"/>
<path fill-rule="evenodd" clip-rule="evenodd" d="M6.0018 1.83336C6.65675 1.83336 7.18975 2.35604 7.18975 2.99947C7.19035 3.63706 6.66567 4.16558 6.00299 4.16558H5.99764C5.34864 4.16558 4.81029 3.65106 4.81029 2.99947C4.81029 2.35604 5.34329 1.83336 6.0018 1.83336ZM4.6918 4.94497C5.07848 5.1905 5.40515 5.57097 5.40515 6.02902V9.40533C5.40515 9.73386 5.67149 10.0002 6.00002 10.0002V10.0002C6.32856 10.0002 6.59489 9.73386 6.59489 9.40533V6.02958C6.59489 5.57154 6.92151 5.19102 7.3082 4.94554C7.97926 4.51954 8.37993 3.78931 8.37948 2.99947C8.37948 1.71319 7.31289 0.666672 5.99824 0.666672C4.68715 0.666672 3.62056 1.71319 3.62056 2.99947C3.62056 3.78561 4.01898 4.51776 4.6918 4.94497Z" fill="#505050"/>
</svg>
