<svg width="14" height="14" viewBox="0 0 14 14" fill="none" xmlns="http://www.w3.org/2000/svg">
<path fill-rule="evenodd" clip-rule="evenodd" d="M6.99962 5.71665C6.29186 5.71665 5.71629 5.14108 5.71629 4.43333C5.71629 3.72622 6.29186 3.15001 6.99962 3.15001C7.70738 3.15001 8.28296 3.72622 8.28296 4.43333C8.28296 5.14108 7.70738 5.71665 6.99962 5.71665Z" fill="#505050"/>
<path fill-rule="evenodd" clip-rule="evenodd" d="M6.99998 13.4167C3.90971 13.4167 0.583313 12.614 0.583313 10.85C0.583313 10.3065 0.911125 9.57276 2.37078 9.00321C2.70109 8.87433 3.06107 9.07172 3.16191 9.41164C3.26271 9.75139 3.06603 10.1029 2.73863 10.2386C2.03357 10.5308 1.86665 10.7993 1.86665 10.85C1.86665 11.1805 3.63123 12.1333 6.99998 12.1333C10.3687 12.1333 12.1333 11.1805 12.1333 10.85C12.1333 10.7994 11.9678 10.5325 11.2699 10.2418C10.9428 10.1056 10.7464 9.75412 10.8474 9.41452C10.9484 9.07477 11.3084 8.8776 11.6384 9.00678C13.0907 9.57508 13.4166 10.3073 13.4166 10.85C13.4166 12.614 10.0902 13.4167 6.99998 13.4167Z" fill="#505050"/>
<path fill-rule="evenodd" clip-rule="evenodd" d="M6.99998 1.86665C5.58446 1.86665 4.43331 3.01779 4.43331 4.43328C4.43331 5.70903 5.43327 7.31078 6.33966 8.47371C6.6777 8.90743 7.32237 8.90753 7.66045 8.47384C8.56702 7.3109 9.56665 5.70908 9.56665 4.43328C9.56665 3.01779 8.4155 1.86665 6.99998 1.86665ZM7.45346 10.6619C7.20301 10.9127 6.79659 10.9127 6.54614 10.6619C6.40754 10.5233 3.1498 7.23413 3.1498 4.43328C3.1498 2.31068 4.87653 0.583332 6.9998 0.583332C9.12308 0.583332 10.8498 2.31068 10.8498 4.43328C10.8498 7.23413 7.59206 10.5233 7.45346 10.6619Z" fill="#505050"/>
</svg>
