<svg width="14" height="14" viewBox="0 0 14 14" fill="none" xmlns="http://www.w3.org/2000/svg">
<path fill-rule="evenodd" clip-rule="evenodd" d="M7.00001 12.25C9.89951 12.25 12.25 9.8995 12.25 7C12.25 4.10051 9.89951 1.75 7.00001 1.75C4.10052 1.75 1.75001 4.10051 1.75001 7C1.75001 9.8995 4.10052 12.25 7.00001 12.25ZM7.00001 13.4167C10.5438 13.4167 13.4167 10.5438 13.4167 7C13.4167 3.45618 10.5438 0.583336 7.00001 0.583336C3.45618 0.583336 0.583344 3.45618 0.583344 7C0.583344 10.5438 3.45618 13.4167 7.00001 13.4167Z" fill="#505050"/>
<path fill-rule="evenodd" clip-rule="evenodd" d="M7.00001 3.5C5.9124 3.5 4.99646 4.24756 4.73893 5.25595C4.65921 5.5681 4.92784 5.83334 5.25001 5.83334V5.83334C5.57218 5.83334 5.82139 5.55652 5.9763 5.27404C6.17465 4.91236 6.55912 4.66667 7.00001 4.66667C7.64343 4.66667 8.16668 5.18992 8.16668 5.83334C8.16668 6.47675 7.64343 7 7.00001 7V7C6.67784 7 6.41668 7.26117 6.41668 7.58334V8.16667C6.41668 8.48884 6.67784 8.75 7.00001 8.75H7.21311C7.41759 8.75 7.58334 8.58424 7.58334 8.37977V8.37977C7.58334 8.21103 7.69879 8.0665 7.85567 8.00437C8.72009 7.66202 9.33334 6.81779 9.33334 5.83334C9.33334 4.5465 8.28684 3.5 7.00001 3.5Z" fill="#505050"/>
<path fill-rule="evenodd" clip-rule="evenodd" d="M7.00001 9.33334C6.67801 9.33334 6.41668 9.59467 6.41668 9.91667C6.41668 10.2393 6.67801 10.5 7.00001 10.5C7.32201 10.5 7.58334 10.2393 7.58334 9.91667C7.58334 9.59467 7.32201 9.33334 7.00001 9.33334Z" fill="#505050"/>
</svg>
