<svg width="20" height="20" viewBox="0 0 20 20" fill="none" xmlns="http://www.w3.org/2000/svg">
<path fill-rule="evenodd" clip-rule="evenodd" d="M16.2858 9.00385C16.3719 9.54938 15.9159 10 15.3636 10H15.2424C14.6901 10 14.2545 9.54593 14.1256 9.00891C13.7546 7.4639 12.5361 6.2454 10.9911 5.8744C10.4541 5.74545 10 5.30986 10 4.75758V4.63636C10 4.08408 10.4506 3.62811 10.9962 3.71419C13.7094 4.14233 15.8577 6.2906 16.2858 9.00385Z" fill="#505050"/>
<path fill-rule="evenodd" clip-rule="evenodd" d="M19.9505 9.00142C20.0053 9.55099 19.5523 10 19 10C18.4477 10 18.0066 9.55004 17.9381 9.00202C17.4862 5.38721 14.6128 2.51381 10.998 2.06194C10.45 1.99343 10 1.55228 10 1C10 0.447715 10.449 -0.0052649 10.9986 0.049469C15.717 0.519402 19.4806 4.28297 19.9505 9.00142Z" fill="#505050"/>
<path fill-rule="evenodd" clip-rule="evenodd" d="M10.8717 8.40426C10.4314 8.16305 10 8.58883 10 9.09091C10 9.59299 10.407 10 10.9091 10C11.4112 10 11.8369 9.56861 11.5957 9.12827C11.4287 8.82328 11.1767 8.57133 10.8717 8.40426Z" fill="#505050"/>
<path fill-rule="evenodd" clip-rule="evenodd" d="M3 3.00001C2.44772 3.00001 2 3.44772 2 4.00001V8.00001C2 13.514 6.486 18 12 18H16.0007C16.5531 18 17.0009 17.5521 17.0007 16.9998L17.0002 14.9998C17.0001 14.4476 16.5524 14 16.0002 14H14C13.4477 14 13 14.4477 13 15C13 15.552 12.552 16 12 16C7.512 16 4.072 12.567 4 8.01601C3.996 7.74801 4.099 7.49001 4.287 7.29801C4.475 7.10701 4.732 7.00001 5 7.00001C5.55228 7.00001 6 6.55229 6 6.00001V4.00001C6 3.44772 5.55228 3.00001 5 3.00001H3ZM17 20H12C5.383 20 0 14.617 0 8.00001V3.00001C0 1.89701 0.897 1.00001 2 1.00001H6C7.103 1.00001 8 1.89701 8 3.00001V7.00001C8 7.67618 7.66262 8.27517 7.14745 8.63737C6.65608 8.98285 6.17418 9.5253 6.37786 10.0904C6.98116 11.7642 8.26189 13.0517 9.91163 13.6435C10.4755 13.8457 11.012 13.3611 11.352 12.8678C11.713 12.344 12.3169 12 13 12H17C18.103 12 19 12.897 19 14V18C19 19.103 18.103 20 17 20Z" fill="#505050"/>
</svg>
