<svg width="16" height="15" viewBox="0 0 16 15" fill="none" xmlns="http://www.w3.org/2000/svg">
<path fill-rule="evenodd" clip-rule="evenodd" d="M3 1.75C2.44771 1.75 2 2.19772 2 2.75L2 9.75C2 10.3023 2.44771 10.75 3 10.75H4.49997C4.77613 10.75 5 10.9739 5 11.25C5 11.6621 5.47038 11.8973 5.80001 11.6501L6.7336 10.95C6.90668 10.8202 7.1172 10.75 7.33355 10.75H13C13.5523 10.75 14 10.3023 14 9.75L14 2.75C14 2.19772 13.5523 1.75 13 1.75L3 1.75ZM5.09998 14.0499C4.44077 14.5444 3.5 14.074 3.5 13.25C3.5 12.6977 3.0523 12.25 2.50002 12.25H2C1.17275 12.25 0.5 11.5773 0.5 10.75L0.5 1.75C0.5 0.92275 1.17275 0.25 2 0.25L14 0.25C14.8272 0.25 15.5 0.92275 15.5 1.75L15.5 10.75C15.5 11.5773 14.8272 12.25 14 12.25H7.8331C7.61672 12.25 7.40618 12.3202 7.23307 12.45L5.09998 14.0499Z" fill="#262626"/>
<path d="M4.25 4.75C4.25 4.33579 4.58579 4 5 4L11 4C11.4142 4 11.75 4.33579 11.75 4.75C11.75 5.16421 11.4142 5.5 11 5.5L5 5.5C4.58579 5.5 4.25 5.16421 4.25 4.75Z" fill="#262626"/>
<path d="M4.25 7.75C4.25 7.33579 4.58579 7 5 7L11 7C11.4142 7 11.75 7.33579 11.75 7.75C11.75 8.16421 11.4142 8.5 11 8.5L5 8.5C4.58579 8.5 4.25 8.16421 4.25 7.75Z" fill="#262626"/>
</svg>
