<svg width="105" height="36" viewBox="0 0 105 36" fill="none" xmlns="http://www.w3.org/2000/svg">
<path fill-rule="evenodd" clip-rule="evenodd" d="M6.46639 8.94653V11.9762L6.52627 11.9611C7.12328 11.4044 7.76405 10.8978 8.44223 10.4462C9.11013 10.0035 9.83556 9.65685 10.5977 9.41614C11.4468 9.15458 12.3296 9.02184 13.2172 9.02227C14.4523 9.02289 15.6761 9.2593 16.8246 9.71911C17.9544 10.1784 18.9749 10.8755 19.8183 11.7642C20.6777 12.6941 21.3399 13.7922 21.7642 14.9908C22.7017 17.7701 22.7017 20.7856 21.7642 23.5649C21.3331 24.7693 20.6719 25.876 19.8183 26.8218C18.9754 27.7148 17.9551 28.417 16.8246 28.882C15.6615 29.3668 14.4152 29.6139 13.1573 29.6091C11.9524 29.6171 10.7592 29.3694 9.65469 28.882C8.4572 28.303 7.36427 27.5247 6.42149 26.5794V35.6685H0V32.1692H2.87395V12.3701H0V8.94653H6.46639ZM9.37028 25.2009C10.3237 25.7613 11.4114 26.0443 12.5137 26.0189L12.3939 26.0341C13.2212 26.054 14.043 25.8938 14.8039 25.5645C15.5182 25.2594 16.1609 24.8051 16.6899 24.2314C17.2394 23.6038 17.6616 22.8729 17.9323 22.0803C18.2509 21.1607 18.408 20.1917 18.3963 19.2172C18.4341 17.9414 18.1725 16.6747 17.6329 15.521C17.1843 14.5463 16.4534 13.7327 15.5373 13.1881C14.5796 12.625 13.4862 12.3419 12.379 12.3701C11.2825 12.3536 10.2019 12.6361 9.25054 13.1881C8.36172 13.7506 7.65831 14.5679 7.22979 15.5361C6.73736 16.6771 6.49236 17.9117 6.5113 19.1566C6.47599 20.4177 6.72155 21.6706 7.22979 22.8226C7.68839 23.8167 8.43492 24.6462 9.37028 25.2009ZM30.1316 13.1275C29.1136 14.1412 28.4872 15.4898 28.3653 16.9298H39.6815C39.5756 15.4886 38.9528 14.1363 37.9302 13.1275C36.8094 12.2638 35.4396 11.7961 34.0309 11.7961C32.6222 11.7961 31.2524 12.2638 30.1316 13.1275ZM43.6332 20.0353H28.051L27.9312 20.0958C27.9125 21.1559 28.1873 22.2002 28.7246 23.1104C29.2538 23.9745 30.0106 24.6722 30.91 25.1252C31.9254 25.6259 33.0438 25.8751 34.1731 25.8523C35.0273 25.9002 35.8832 25.7976 36.7028 25.5493C37.4903 25.2759 38.2247 24.8659 38.8732 24.3374C39.5401 23.7795 40.1116 23.1142 40.5646 22.3681L43.3787 24.595C42.4711 26.0706 41.2294 27.3065 39.7564 28.2003C38.0396 29.1613 36.1048 29.6521 34.1432 29.6243C32.7087 29.6312 31.2845 29.3799 29.937 28.882C28.7125 28.4191 27.6026 27.6913 26.6848 26.7494C25.767 25.8074 25.0634 24.6741 24.6232 23.4285C24.1204 22.031 23.8719 20.5529 23.8897 19.0658C23.8731 17.5738 24.1215 16.0909 24.6232 14.6878C25.0809 13.451 25.7839 12.3219 26.6888 11.3703C27.5887 10.4287 28.6753 9.69046 29.8771 9.20406C31.1629 8.7087 32.5279 8.45708 33.9037 8.46178C35.7389 8.41821 37.5509 8.8845 39.1426 9.81C40.6227 10.7409 41.783 12.1109 42.4657 13.7335C43.28 15.7301 43.6775 17.8757 43.6332 20.0353ZM66.8813 29.0216H57.6607V25.6587H60.385L66.1608 19.1112L59.9788 12.3701H57.2695C55.9977 12.3109 54.7356 12.621 53.6322 13.2639C52.6777 13.8796 51.9636 14.8111 51.6114 15.8997C51.1804 17.2956 50.988 18.7556 51.0426 20.217V29.0183H44.5463V25.519H47.4202V12.3701H44.5463V9.02227H51.0276V12.7791C51.322 12.1028 51.6991 11.4666 52.1503 10.8855C52.5168 10.4225 52.9694 10.0365 53.4825 9.74941C53.9955 9.46845 54.5525 9.27886 55.129 9.18891C55.8069 9.07623 56.4928 9.02048 57.1797 9.02227H66.9392V12.3701H64.664L68.436 16.5965L72.2081 12.3701H69.6634V9.02227H79.2583L70.6663 18.7022L76.7817 25.5526H78.7725V29.0216H69.5519V25.5981H71.9918L68.3013 21.3077L64.3966 25.6587H66.8813V29.0216Z" fill="#262626"/>
<path d="M85.6502 29.0167H82.0871V12.3367H79.2932V9.0171H85.6502V29.0167Z" fill="#262626"/>
<path d="M88.8126 29.0244V22.2622H91.9709C92.1059 23.5737 92.6322 24.5982 93.55 25.3359C94.4678 26.0736 95.6555 26.4425 97.1132 26.4425C98.3009 26.4425 99.2322 26.1966 99.907 25.7048C100.609 25.1856 100.96 24.5163 100.96 23.6966C100.96 22.4398 99.7586 21.5245 97.3561 20.9508L94.3193 20.2541C92.4028 19.7896 90.9856 19.1065 90.0678 18.2049C89.177 17.3033 88.7316 16.0738 88.7316 14.5165C88.7316 12.8498 89.3795 11.4427 90.6752 10.2952C91.9979 9.12038 93.6445 8.53296 95.615 8.53296C97.6666 8.53296 99.4212 9.20235 100.879 10.5411V9.02475H103.916V15.541H100.879C100.771 14.3389 100.258 13.3826 99.3402 12.6722C98.4494 11.9345 97.2752 11.5657 95.8175 11.5657C94.7647 11.5657 93.9279 11.7979 93.3071 12.2624C92.7132 12.7269 92.4163 13.3553 92.4163 14.1476C92.4163 14.858 92.6727 15.4044 93.1856 15.7869C93.6985 16.1694 94.5083 16.4836 95.615 16.7295L98.9758 17.4262C102.701 18.2459 104.563 20.1448 104.563 23.1228C104.563 25.0627 103.902 26.6337 102.579 27.8359C101.284 29.0107 99.5291 29.5981 97.3156 29.5981C95.1561 29.5981 93.3746 28.9561 91.9709 27.6719V29.0244H88.8126Z" fill="#262626"/>
<path fill-rule="evenodd" clip-rule="evenodd" d="M90.9862 0.603516L85.6574 6.66292H81.4213L86.7801 0.603516H90.9862Z" fill="#DE0C74"/>
</svg>
