<svg width="24" height="24" viewBox="0 0 24 24" fill="none" xmlns="http://www.w3.org/2000/svg">
<path fill-rule="evenodd" clip-rule="evenodd" d="M22 12.0001C22 11.3864 21.5025 10.8889 20.8889 10.8889H3.11111C2.49746 10.8889 2 11.3864 2 12.0001C2 12.6137 2.49746 13.1112 3.11111 13.1112H20.8889C21.5025 13.1112 22 12.6137 22 12.0001Z" fill="#505050"/>
<path fill-rule="evenodd" clip-rule="evenodd" d="M22 18.8892C22 18.2756 21.5025 17.7781 20.8889 17.7781H3.11111C2.49746 17.7781 2 18.2756 2 18.8892C2 19.5029 2.49746 20.0003 3.11111 20.0003H20.8889C21.5025 20.0003 22 19.5029 22 18.8892Z" fill="#505050"/>
<path fill-rule="evenodd" clip-rule="evenodd" d="M22 5.11114C22 4.49749 21.5025 4.00003 20.8889 4.00003H3.11111C2.49746 4.00003 2 4.49749 2 5.11114C2 5.72479 2.49746 6.22225 3.11111 6.22225H20.8889C21.5025 6.22225 22 5.72479 22 5.11114Z" fill="#505050"/>
</svg>
